<svg width="41" height="41" viewBox="0 0 41 41" fill="none" xmlns="http://www.w3.org/2000/svg">
<g id="rating 1">
<path id="Vector" d="M21.3008 32.5117C21.3008 32.954 20.9423 33.3125 20.5 33.3125C20.0577 33.3125 19.6992 32.954 19.6992 32.5117C19.6992 32.0694 20.0577 31.7109 20.5 31.7109C20.9423 31.7109 21.3008 32.0694 21.3008 32.5117Z" fill="#CDB900"/>
<path id="Vector_2" d="M38.3574 25.3047C38.3574 22.6552 36.2022 20.5 33.5527 20.5C30.9033 20.5 28.748 22.6552 28.748 25.3047C28.748 27.9541 30.9033 30.1094 33.5527 30.1094C36.2022 30.1094 38.3574 27.9541 38.3574 25.3047ZM33.5527 28.5078C31.7866 28.5078 30.3496 27.0708 30.3496 25.3047C30.3496 23.5386 31.7866 22.1016 33.5527 22.1016C35.3188 22.1016 36.7559 23.5386 36.7559 25.3047C36.7559 27.0708 35.3188 28.5078 33.5527 28.5078Z" fill="#CDB900"/>
<path id="Vector_3" d="M33.5527 30.1094C31.5348 30.1094 29.5226 30.9471 28.1518 32.3053C26.3476 29.9342 23.5655 28.5078 20.5 28.5078C17.5643 28.5078 14.7197 29.8472 12.8485 32.3053C11.4774 30.9474 9.46548 30.1094 7.44727 30.1094C3.41051 30.1094 0 33.4098 0 37.3164V38.918C0 39.3603 0.358475 39.7188 0.800781 39.7188H40.1992C40.6415 39.7188 41 39.3603 41 38.918V37.3164C41 33.4098 37.5895 30.1094 33.5527 30.1094ZM1.60156 37.3164C1.60156 34.2778 4.27855 31.7109 7.44727 31.7109C9.18114 31.7109 10.9006 32.4792 11.9651 33.7004C11.2613 35.0598 10.8906 36.5751 10.8906 38.1172H1.60156V37.3164ZM20.5 30.1094C24.9559 30.1094 28.5078 33.7248 28.5078 38.1172H12.4922C12.4922 33.6663 16.1167 30.1094 20.5 30.1094ZM39.3984 38.1172H30.1094C30.1094 36.5751 29.7387 35.0598 29.0349 33.7004C30.0994 32.4792 31.8189 31.7109 33.5527 31.7109C36.7215 31.7109 39.3984 34.2778 39.3984 37.3164V38.1172Z" fill="#CDB900"/>
<path id="Vector_4" d="M12.252 25.3047C12.252 22.6552 10.0967 20.5 7.44727 20.5C4.79781 20.5 2.64258 22.6552 2.64258 25.3047C2.64258 27.9541 4.79781 30.1094 7.44727 30.1094C10.0967 30.1094 12.252 27.9541 12.252 25.3047ZM7.44727 28.5078C5.68117 28.5078 4.24414 27.0708 4.24414 25.3047C4.24414 23.5386 5.68117 22.1016 7.44727 22.1016C9.21336 22.1016 10.6504 23.5386 10.6504 25.3047C10.6504 27.0708 9.21336 28.5078 7.44727 28.5078Z" fill="#CDB900"/>
<path id="Vector_5" d="M26.9062 22.1016C26.9062 18.5691 24.0325 15.6953 20.5 15.6953C16.9675 15.6953 14.0938 18.5691 14.0938 22.1016C14.0938 25.6341 16.9675 28.5078 20.5 28.5078C24.0325 28.5078 26.9062 25.6341 26.9062 22.1016ZM20.5 26.9062C17.8505 26.9062 15.6953 24.751 15.6953 22.1016C15.6953 19.4521 17.8505 17.2969 20.5 17.2969C23.1495 17.2969 25.3047 19.4521 25.3047 22.1016C25.3047 24.751 23.1495 26.9062 20.5 26.9062Z" fill="#CDB900"/>
<path id="Vector_6" d="M26.8376 5.93861C26.7435 5.64864 26.4929 5.43749 26.1911 5.3937L22.7371 4.89227L21.1906 1.73044C21.0564 1.45548 20.7773 1.28125 20.4714 1.28125C20.1655 1.28125 19.8865 1.45548 19.752 1.73013L18.2058 4.89227L14.7518 5.39339C14.4499 5.43718 14.1994 5.64864 14.1052 5.93861C14.0111 6.22858 14.0896 6.5467 14.3079 6.75941L16.8091 9.1971L16.2188 12.6395C16.1672 12.9398 16.2908 13.2435 16.5376 13.4225C16.7828 13.6008 17.1094 13.6261 17.3809 13.4835L20.4714 11.8584L23.5632 13.4835C23.8328 13.6255 24.1597 13.6017 24.4065 13.4225C24.653 13.2432 24.7766 12.9398 24.725 12.6392L24.1341 9.1971L26.6349 6.75941C26.8533 6.5467 26.9318 6.22858 26.8376 5.93861ZM22.7142 8.34408C22.5256 8.52801 22.4393 8.79327 22.484 9.05289L22.8716 11.311L20.844 10.245C20.6106 10.1224 20.3319 10.1224 20.0986 10.245L18.0716 11.311L18.4588 9.05289C18.5033 8.79295 18.4169 8.52801 18.2283 8.34408L16.5879 6.74533L18.8542 6.41626C19.1164 6.37841 19.3425 6.21325 19.4586 5.97552L20.4714 3.90475L21.484 5.97552C21.6003 6.21356 21.8265 6.37841 22.0883 6.41626L24.3549 6.74533L22.7142 8.34408Z" fill="#CDB900"/>
<path id="Vector_7" d="M38.8068 11.9404C38.7126 11.6504 38.462 11.4393 38.1602 11.3955L35.8201 11.0555L34.7738 8.93465C34.6389 8.66126 34.3609 8.48828 34.0559 8.48828C34.0559 8.48828 34.0559 8.48828 34.0556 8.48828C33.7509 8.48828 33.4725 8.66126 33.3377 8.93465L32.2907 11.0555L29.9503 11.3955C29.6488 11.4393 29.3982 11.6504 29.304 11.9404C29.2096 12.2304 29.2881 12.5485 29.5064 12.7612L31.1996 14.4125L30.7999 16.7429C30.7486 17.0432 30.8718 17.3466 31.1186 17.5258C31.3651 17.7051 31.692 17.7289 31.9616 17.5872L34.0556 16.487L36.1488 17.5872C36.4185 17.7289 36.7457 17.7051 36.9922 17.5258C37.2387 17.3469 37.3619 17.0432 37.3106 16.7429L36.9108 14.4125L38.6044 12.7612C38.8227 12.5485 38.9009 12.2304 38.8068 11.9404ZM35.4916 13.5598C35.3027 13.7437 35.2167 14.0087 35.2614 14.2683L35.4579 15.4144L34.4284 14.8736C34.1951 14.751 33.9164 14.751 33.6833 14.8736L32.6529 15.4147L32.8497 14.2683C32.8941 14.0087 32.8081 13.7437 32.6195 13.5598L31.7862 12.7471L32.9376 12.5801C33.1985 12.5422 33.424 12.3783 33.5407 12.1422L34.0556 11.099L34.5701 12.1418C34.6868 12.3783 34.9123 12.5422 35.1732 12.5801L36.3246 12.7471L35.4916 13.5598Z" fill="#CDB900"/>
<path id="Vector_8" d="M11.5802 11.9404C11.4861 11.6504 11.2355 11.4393 10.9337 11.3955L8.59356 11.0555L7.54723 8.93465C7.41241 8.66126 7.13432 8.48828 6.82934 8.48828C6.52435 8.48828 6.24596 8.66126 6.11114 8.93465L5.06418 11.0555L2.72377 11.3955C2.42222 11.4393 2.17167 11.6504 2.07751 11.9404C1.98304 12.2304 2.06156 12.5485 2.2799 12.7612L3.97311 14.4125L3.57366 16.7429C3.52205 17.0432 3.64561 17.3466 3.8921 17.5258C4.13859 17.7051 4.46547 17.7289 4.73542 17.5872L6.82903 16.487L8.92232 17.5872C9.19383 17.7298 9.5204 17.7041 9.76564 17.5258C10.0121 17.3469 10.1357 17.0432 10.0841 16.7429L9.68431 14.4125L11.3778 12.7612C11.5962 12.5485 11.6744 12.2304 11.5802 11.9404ZM8.2648 13.5598C8.07618 13.7437 7.99016 14.0087 8.03458 14.2683L8.23133 15.4144L7.20158 14.8736C6.96854 14.751 6.68983 14.751 6.45679 14.8736L5.42609 15.4147L5.62285 14.2683C5.66758 14.0087 5.58124 13.7437 5.39262 13.5598L4.55931 12.7471L5.71106 12.5801C5.97163 12.5422 6.19716 12.3783 6.31384 12.1422L6.82871 11.099L7.34328 12.1418C7.45995 12.3783 7.68549 12.5422 7.94637 12.5801L9.0978 12.7471L8.2648 13.5598Z" fill="#CDB900"/>
<path id="Vector_9" d="M24.0092 32.7594C23.6395 32.5164 23.143 32.6193 22.9003 32.989C22.6573 33.3584 22.7602 33.8548 23.1299 34.0979C23.8703 34.5843 24.4621 35.2625 24.8413 36.0589C25.0308 36.4577 25.5082 36.6282 25.9082 36.4377C26.3077 36.2478 26.4772 35.7698 26.2874 35.3707C25.7825 34.3097 24.9945 33.4066 24.0092 32.7594Z" fill="#CDB900"/>
</g>
</svg>
