<svg width="40" height="40" viewBox="0 0 40 40" fill="none" xmlns="http://www.w3.org/2000/svg">
<g id="discount (2) 1" clip-path="url(#clip0_2_130)">
<g id="Group">
<g id="Group_2">
<path id="Vector" d="M37.3404 20.518C37.1794 20.1887 37.1794 19.8111 37.3404 19.4819L38.8322 16.4299C39.6628 14.7307 39.0047 12.7053 37.3339 11.8188L34.3332 10.2266C34.0094 10.0549 33.7875 9.74928 33.7241 9.38842L33.1373 6.04243C32.8105 4.17947 31.0872 2.9276 29.2148 3.19252L25.8513 3.6683C25.4882 3.71955 25.1293 3.60283 24.8659 3.34807L22.4244 0.986207C21.065 -0.328941 18.9353 -0.329019 17.5759 0.986207L15.1344 3.3483C14.871 3.60315 14.512 3.71963 14.149 3.66854L10.7855 3.19276C8.91247 2.92768 7.18983 4.1797 6.86303 6.04266L6.27616 9.3885C6.2128 9.74944 5.99085 10.055 5.66718 10.2268L2.66642 11.819C0.995644 12.7054 0.337523 14.7309 1.16814 16.4302L2.65993 19.482C2.82087 19.8113 2.82087 20.189 2.65993 20.5182L1.16807 23.5701C0.337445 25.2693 0.995566 27.2947 2.66634 28.1812L5.6671 29.7734C5.99085 29.9451 6.2128 30.2507 6.27616 30.6116L6.86303 33.9576C7.16053 35.6535 8.61474 36.8429 10.2861 36.8427C10.4507 36.8427 10.6177 36.8312 10.7856 36.8074L14.1491 36.3316C14.5118 36.2801 14.871 36.3971 15.1345 36.6519L17.5759 39.0137C18.2558 39.6714 19.1278 40.0001 20.0001 40C20.8722 40 21.7448 39.6712 22.4243 39.0137L24.8659 36.6519C25.1293 36.3971 25.4884 36.2807 25.8513 36.3316L29.2148 36.8074C31.088 37.0724 32.8105 35.8205 33.1373 33.9575L33.7242 30.6117C33.7876 30.2507 34.0095 29.9452 34.3332 29.7734L37.3339 28.1812C39.0047 27.2948 39.6628 25.2693 38.8322 23.57L37.3404 20.518ZM36.2526 26.1432L33.2519 27.7353C32.2951 28.2431 31.639 29.146 31.4519 30.2129L30.865 33.5588C30.7545 34.1891 30.1717 34.6125 29.5379 34.523L26.1744 34.0473C25.1018 33.8953 24.0404 34.2405 23.2618 34.9936L20.8203 37.3554C20.3605 37.8002 19.6399 37.8002 19.1799 37.3554L16.7384 34.9935C16.0805 34.357 15.2203 34.0121 14.3224 34.0121C14.1578 34.0121 13.992 34.0237 13.8259 34.0472L10.4624 34.523C9.82911 34.6125 9.24591 34.1891 9.13528 33.5587L8.54833 30.2128C8.36115 29.1459 7.70506 28.2428 6.74827 27.7353L3.7475 26.1431C3.18219 25.8432 2.95954 25.1579 3.24055 24.583L4.73242 21.5311C5.20804 20.558 5.20804 19.4419 4.73242 18.4688L3.24055 15.4168C2.95954 14.8419 3.18219 14.1567 3.7475 13.8568L6.74827 12.2646C7.70498 11.7568 8.36115 10.8539 8.54826 9.78701L9.13513 6.4411C9.24575 5.81079 9.82841 5.38735 10.4622 5.47688L13.8257 5.95266C14.898 6.10446 15.9598 5.75938 16.7383 5.00634L19.1798 2.64448C19.6397 2.19964 20.3602 2.19964 20.8202 2.64448L23.2617 5.00634C24.0402 5.75946 25.1018 6.10446 26.1742 5.95266L29.5377 5.47688C30.1711 5.38728 30.7543 5.81079 30.8648 6.4411L31.4517 9.78709C31.6389 10.854 32.295 11.757 33.2518 12.2646L36.2525 13.8568C36.8179 14.1567 37.0405 14.8419 36.7595 15.4168L35.2676 18.4687C34.792 19.4417 34.792 20.558 35.2676 21.531L36.7595 24.5829C37.0406 25.1579 36.8179 25.8432 36.2526 26.1432Z" fill="#04B200"/>
</g>
</g>
<g id="Group_3">
<g id="Group_4">
<path id="Vector_2" d="M28.4284 11.5715C27.978 11.121 27.2476 11.121 26.7971 11.5715L11.5715 26.7972C11.121 27.2477 11.121 27.978 11.5715 28.4285C11.7967 28.6537 12.092 28.7664 12.3871 28.7664C12.6823 28.7664 12.9776 28.6538 13.2027 28.4285L28.4284 13.2029C28.879 12.7523 28.879 12.022 28.4284 11.5715Z" fill="#04B200"/>
</g>
</g>
<g id="Group_5">
<g id="Group_6">
<path id="Vector_3" d="M15.3861 9.61841C13.054 9.61841 11.1566 11.5158 11.1566 13.848C11.1566 16.1802 13.054 18.0776 15.3861 18.0776C17.7183 18.0776 19.6157 16.1802 19.6157 13.848C19.6157 11.5158 17.7183 9.61841 15.3861 9.61841ZM15.3861 15.7705C14.3261 15.7705 13.4637 14.9081 13.4637 13.8479C13.4637 12.7878 14.3261 11.9254 15.3861 11.9254C16.4462 11.9254 17.3087 12.7878 17.3087 13.8479C17.3086 14.9081 16.4462 15.7705 15.3861 15.7705Z" fill="#04B200"/>
</g>
</g>
<g id="Group_7">
<g id="Group_8">
<path id="Vector_4" d="M24.6141 21.9226C22.2819 21.9226 20.3845 23.82 20.3845 26.1522C20.3845 28.4844 22.2819 30.3818 24.6141 30.3818C26.9463 30.3818 28.8437 28.4844 28.8437 26.1522C28.8437 23.82 26.9463 21.9226 24.6141 21.9226ZM24.6141 28.0747C23.554 28.0747 22.6915 27.2123 22.6915 26.1522C22.6915 25.0921 23.554 24.2297 24.6141 24.2297C25.6742 24.2297 26.5366 25.0921 26.5366 26.1522C26.5366 27.2123 25.6742 28.0747 24.6141 28.0747Z" fill="#04B200"/>
</g>
</g>
</g>
<defs>
<clipPath id="clip0_2_130">
<rect width="40" height="40" fill="white"/>
</clipPath>
</defs>
</svg>
