<svg width="38" height="38" viewBox="0 0 38 38" fill="none" xmlns="http://www.w3.org/2000/svg">
<g id="stats (1) 1" clip-path="url(#clip0_2_112)">
<g id="Group">
<g id="Group_2">
<path id="Vector" d="M37.4422 36.8845H33.8356V14.8356C33.8356 14.5276 33.5859 14.2778 33.2778 14.2778H27.3288C27.0207 14.2778 26.771 14.5276 26.771 14.8356V36.8845H22.5323V21.3796C22.5323 21.0716 22.2826 20.8218 21.9745 20.8218H16.0255C15.7174 20.8218 15.4677 21.0716 15.4677 21.3796V36.8845H11.229V24.3541C11.229 24.0461 10.9793 23.7964 10.6712 23.7964H4.72217C4.41409 23.7964 4.16441 24.0461 4.16441 24.3541V36.8844H0.557754C0.249672 36.8844 0 37.1341 0 37.4421C0 37.7501 0.249672 37.9999 0.557754 37.9999H37.4422C37.7503 37.9999 38 37.7501 38 37.4421C37.9999 37.1341 37.7503 36.8845 37.4422 36.8845ZM10.1135 36.8845H5.27985V24.9119H10.1135V36.8845ZM21.4169 36.8845H16.5832V21.9373H21.4169V36.8845ZM32.7201 36.8845H27.8865V15.3933H32.7201V36.8845Z" fill="#FF7600"/>
</g>
</g>
<g id="Group_3">
<g id="Group_4">
<path id="Vector_2" d="M36.2194 0.43749C35.8434 0.105658 35.3431 -0.0489401 34.8459 0.0135521L30.0866 0.60849C29.1418 0.726572 28.4511 1.61341 28.5693 2.55918C28.6888 3.5149 29.5631 4.196 30.5201 4.07651L30.9084 4.02804C25.067 10.801 18.1226 14.3013 13.2154 16.0604C7.09673 18.2539 2.33434 18.4415 2.28795 18.4431C1.32586 18.4732 0.566747 19.2804 0.595841 20.2427C0.624638 21.193 1.39154 21.9373 2.34191 21.9373C2.35958 21.9373 2.37731 21.9371 2.3955 21.9365C2.60724 21.9301 7.65568 21.7519 14.3068 19.3819C18.0458 18.0495 21.564 16.2808 24.7637 14.125C25.0192 13.9529 25.0867 13.6062 24.9145 13.3508C24.7425 13.0953 24.3959 13.0278 24.1403 13.1999C21.0181 15.3037 17.5836 17.0301 13.9324 18.3312C7.44467 20.6429 2.56613 20.8154 2.3621 20.8215L2.34191 20.8218C1.99843 20.8218 1.72115 20.5526 1.71075 20.2089C1.70022 19.8608 1.97483 19.5689 2.32306 19.5579C2.37175 19.5564 7.27004 19.3766 13.5918 17.1104C18.888 15.2118 26.498 11.3351 32.6754 3.64871C32.983 3.26604 32.6578 2.68498 32.1716 2.74592L30.3821 2.96961C30.0718 3.00798 29.7705 2.8047 29.6917 2.50174C29.597 2.13717 29.8518 1.76192 30.2251 1.71517L34.9845 1.12023C35.3561 1.07325 35.6949 1.37361 35.6949 1.74745V6.50673C35.6949 6.85526 35.4113 7.13885 35.0627 7.13885C34.7141 7.13885 34.4306 6.85533 34.4306 6.50673V5.06392C34.4306 4.83599 34.2832 4.62283 34.0701 4.54231C33.8498 4.45911 33.5896 4.52895 33.4408 4.71123C31.3577 7.26368 28.9858 9.57337 26.3909 11.5761C26.1471 11.7643 26.1019 12.1145 26.2901 12.3584C26.4783 12.6023 26.8287 12.6474 27.0724 12.4592C29.3327 10.7147 31.4279 8.74338 33.317 6.58547C33.3582 7.51269 34.1255 8.25443 35.0628 8.25443C36.0264 8.25443 36.8104 7.47046 36.8104 6.50688V1.7476C36.8103 1.24662 36.5949 0.769025 36.2194 0.43749Z" fill="#FF7600"/>
</g>
</g>
</g>
<defs>
<clipPath id="clip0_2_112">
<rect width="38" height="38" fill="white"/>
</clipPath>
</defs>
</svg>
